<?xml version="1.0" encoding="UTF-8"?>
<svg xmlns="http://www.w3.org/2000/svg" xmlns:xlink="http://www.w3.org/1999/xlink" width="193pt" height="193pt" viewBox="0 0 193 193" version="1.1">
<g id="surface1">
<path style=" stroke:none;fill-rule:evenodd;fill:rgb(100%,100%,100%);fill-opacity:1;" d="M 0 0.242188 L 192.757813 0.242188 L 192.757813 193 L 0 193 L 0 0.242188 "/>
<path style=" stroke:none;fill-rule:evenodd;fill:rgb(13.699341%,12.199402%,12.5%);fill-opacity:1;" d="M 73.277344 73.980469 L 82.335938 73.980469 C 90.804688 73.980469 95.59375 76.445313 95.59375 80.625 L 95.59375 106.027344 L 81.34375 106.027344 L 81.34375 82.1875 L 72.8125 82.1875 L 72.8125 106.027344 L 58.5625 106.027344 L 58.5625 83.253906 C 59.664063 83.449219 60.832031 83.554688 62.042969 83.554688 C 68.707031 83.554688 74.136719 80.351563 74.136719 76.425781 C 74.136719 75.492188 73.832031 74.796875 73.277344 73.980469 "/>
<path style=" stroke:none;fill-rule:evenodd;fill:rgb(13.699341%,12.199402%,12.5%);fill-opacity:1;" d="M 49.945313 79.710938 L 49.945313 106.027344 L 35.695313 106.027344 L 35.695313 83.511719 C 36.703125 83.667969 37.757813 83.75 38.84375 83.75 C 43.6875 83.75 47.898438 82.105469 49.945313 79.710938 "/>
<path style=" stroke:none;fill-rule:evenodd;fill:rgb(13.699341%,12.199402%,12.5%);fill-opacity:1;" d="M 29.449219 106.027344 L 29.449219 96.765625 L 24.214844 96.765625 L 24.214844 73.835938 L 8.503906 73.835938 L 8.503906 106.027344 L 29.449219 106.027344 "/>
<path style=" stroke:none;fill-rule:evenodd;fill:rgb(13.699341%,12.199402%,12.5%);fill-opacity:1;" d="M 115.117188 103.339844 L 120.90625 106.027344 L 143.410156 106.027344 L 143.617188 105.871094 L 117.835938 93.910156 L 143.617188 73.785156 L 129.367188 73.785156 L 115.117188 85.511719 L 115.117188 73.785156 L 100.867188 73.785156 L 100.867188 106.027344 L 115.117188 106.027344 L 115.117188 103.339844 "/>
<path style=" stroke:none;fill-rule:evenodd;fill:rgb(92.89856%,10.998535%,14.099121%);fill-opacity:1;" d="M 42.796875 65.460938 C 46.734375 65.460938 49.945313 68.394531 49.945313 72 C 49.945313 75.601563 46.734375 78.539063 42.796875 78.539063 C 38.855469 78.539063 35.644531 75.601563 35.644531 72 C 35.644531 68.394531 38.855469 65.460938 42.796875 65.460938 "/>
<path style=" stroke:none;fill-rule:evenodd;fill:rgb(92.89856%,10.998535%,14.099121%);fill-opacity:1;" d="M 170.804688 55.933594 L 170.1875 56.777344 L 172 57.023438 L 173.027344 57.371094 L 174.121094 57.023438 L 173.378906 55.027344 Z M 168.4375 102.324219 L 167.121094 102.324219 L 166.460938 103.480469 L 165.84375 104.078125 L 165.71875 104.324219 L 165.71875 104.550781 L 165.84375 105.457031 L 166.214844 105.828125 L 166.8125 105.949219 L 167.242188 105.949219 L 167.367188 105.828125 L 168.085938 104.796875 L 168.929688 103.601563 L 168.929688 102.863281 Z M 157.710938 111.984375 L 157.933594 112.210938 L 159.335938 111.984375 L 160.054688 111.367188 L 161.269531 110.644531 L 161.621094 111.015625 L 162.28125 111.015625 L 163.246094 109.019531 L 164.648438 107.925781 L 165.121094 107.390625 L 165.246094 106.917969 L 165.121094 106.421875 L 165 106.199219 L 164.773438 106.074219 L 163.019531 105.949219 L 162.402344 106.917969 L 161.496094 107.925781 L 160.304688 109.140625 L 157.933594 111.015625 L 157.710938 111.488281 Z M 156.203125 86.160156 L 156.308594 85.441406 L 154.992188 85.441406 L 153.714844 85.5625 L 153.363281 86.035156 L 153.117188 86.757813 L 153.363281 87.664063 L 153.714844 88.035156 L 154.144531 88.160156 L 154.515625 88.160156 L 155.710938 86.632813 Z M 153.363281 60.710938 L 153.898438 60.996094 L 154.867188 60.339844 L 156.082031 60.089844 L 156.308594 59.371094 L 156.203125 59 L 155.960938 58.648438 L 154.992188 58.402344 L 153.609375 58.648438 L 153.238281 59 L 153.117188 59.96875 L 153.238281 60.585938 Z M 125.851563 126.210938 L 127.171875 125.554688 L 127.953125 125.964844 L 129.765625 124.957031 L 130.671875 125.058594 L 134.605469 122.710938 L 140.144531 120.242188 L 141.894531 119.273438 L 145.929688 116.453125 L 146.960938 116.328125 L 148.832031 115.710938 L 150.171875 115.957031 L 151.550781 115.835938 L 151.675781 115.421875 L 151.015625 114.804688 L 150.398438 113.734375 L 151.675781 113.011719 L 154.621094 110.769531 L 156.617188 109.511719 L 165.367188 101.605469 L 167.121094 100.265625 L 168.5625 98.289063 L 164.773438 98.289063 L 163.371094 96.890625 L 162.402344 96.664063 L 161.808594 98.640625 L 159.808594 98.515625 L 158.554688 99.011719 L 157.339844 99.917969 L 155.359375 99.132813 L 153.898438 99.609375 L 152.992188 98.042969 L 151.429688 93.328125 L 151.117188 90.855469 L 151.117188 90.507813 L 151.796875 88.632813 L 150.046875 88.878906 L 149.925781 87.191406 L 150.171875 86.40625 L 150.894531 85.667969 L 153.609375 83.8125 L 155.585938 82.226563 L 156.988281 82 L 159.460938 80.375 L 160.53125 79.878906 L 160.179688 78.625 L 160.898438 78.625 L 161.621094 77.53125 L 163.125 77.160156 L 164.09375 76.566406 L 164.523438 76.152344 L 164.648438 75.78125 L 164.523438 75.535156 L 164.523438 75.410156 L 163.742188 74.9375 L 165.121094 73.558594 L 166.8125 71.375 L 169.054688 69.152344 L 171.277344 65.773438 L 172.183594 64.4375 L 170.683594 64.085938 L 167.242188 63.839844 L 163.617188 64.1875 L 161.808594 64.808594 L 159.210938 64.1875 L 158.800781 64.1875 L 158.183594 64.3125 L 157.710938 64.558594 L 156.863281 65.402344 L 154.867188 64.929688 L 152.644531 66.433594 L 151.550781 66.433594 L 148.421875 67.277344 L 147.207031 67.753906 L 146.484375 66.785156 L 145.703125 65.402344 L 145.578125 64.1875 L 145.703125 63.285156 L 146.113281 62.6875 L 146.484375 62.335938 L 147.679688 62.089844 L 148.523438 62.933594 L 149.554688 62.5625 L 149.554688 61.59375 L 151.015625 61.121094 L 151.550781 60.710938 L 151.675781 60.585938 L 151.796875 60.214844 L 151.675781 59.863281 L 151.304688 59.617188 L 150.894531 59.492188 L 149.203125 59.742188 L 146.113281 60.339844 L 144.859375 60.8125 L 143.890625 59.492188 L 143.890625 58.21875 L 145.210938 57.992188 L 148.421875 57.023438 L 153.488281 55.808594 L 162.652344 54.179688 L 171.648438 53.460938 L 173.277344 53.214844 L 174.121094 53.460938 L 174.902344 54.058594 L 183.40625 66.90625 L 184.253906 68.367188 L 184.253906 68.472656 L 183.757813 69.75 L 182.914063 71.191406 L 181.65625 72.589844 L 178.566406 74.691406 L 177.726563 77.039063 L 177.375 77.65625 L 177.066406 77.882813 L 175.625 78.128906 L 174.78125 79.878906 L 174.242188 80.375 L 173.875 80.601563 L 172.535156 80.722656 L 172 82.226563 L 171.527344 82.96875 L 171.277344 83.070313 L 169.960938 83.070313 L 169.054688 84.039063 L 166.089844 86.285156 L 165.246094 87.191406 L 164.402344 89.003906 L 163.019531 89.105469 L 161.929688 89.539063 L 159.460938 91.101563 L 158.183594 91.699219 L 158.183594 91.945313 L 159.933594 92.257813 L 165.964844 92.378906 L 173.152344 92.257813 L 175.027344 91.945313 L 175.871094 92.855469 L 183.035156 101.480469 L 183.160156 102.203125 L 183.035156 102.863281 L 182.007813 103.953125 L 180.09375 106.546875 L 178.566406 107.390625 L 176.34375 109.617188 L 173.628906 111.367188 L 170.558594 114.578125 L 164.648438 118.203125 L 160.652344 122.113281 L 159.933594 122.363281 L 157.933594 122.113281 L 156.492188 122.238281 L 156.308594 122.363281 L 154.621094 125.308594 L 153.898438 126.089844 L 150.523438 126.210938 L 148.523438 127.902344 L 145.703125 128.808594 L 144.734375 129.898438 L 143.890625 129.777344 L 142.738281 130.371094 L 141.644531 129.40625 L 140.636719 129.054688 L 140.515625 129.179688 L 140.390625 129.179688 L 138.332031 131.277344 L 137.671875 131.773438 L 137.199219 131.773438 L 134.832031 131.15625 L 134.480469 131.277344 L 134.109375 131.898438 L 133.265625 134.121094 L 132.976563 134.367188 L 132.484375 134.367188 L 131.886719 133.996094 L 130.257813 133.214844 L 129.289063 133.996094 L 128.796875 135.210938 L 127.953125 135.933594 L 126.574219 136.839844 L 126.203125 136.960938 L 125.976563 136.839844 L 125.480469 136.46875 L 124.699219 135.335938 L 123.855469 135.5625 L 122.765625 138.402344 L 121.136719 138.15625 L 121.136719 137.1875 L 119.632813 136.589844 L 118.066406 137.085938 L 118.191406 138.402344 L 117.945313 139.0625 L 117.59375 139.433594 L 117.039063 139.554688 L 116.6875 139.554688 L 116.441406 139.433594 L 115.351563 138.402344 L 115 138.15625 L 114.566406 138.15625 L 113.972656 138.28125 L 113.476563 138.652344 L 112.878906 139.78125 L 111.851563 139.78125 L 111.253906 139.90625 L 111.003906 140.03125 L 110.65625 139.90625 L 110.285156 139.554688 L 110.039063 138.9375 L 110.160156 138.402344 L 110.410156 137.929688 L 110.882813 137.558594 L 112.21875 137.1875 L 112.507813 136.714844 L 111.253906 136.34375 L 109.503906 136.34375 L 108.65625 134.492188 L 108.410156 133.335938 L 108.535156 132.492188 L 109.027344 132 L 112.632813 130.988281 L 116.195313 129.898438 L 120.191406 128.394531 L 125.851563 126.210938 "/>
<path style=" stroke:none;fill-rule:evenodd;fill:rgb(13.699341%,12.199402%,12.5%);fill-opacity:1;" d="M 8.925781 109.363281 L 12.75 109.363281 L 12.75 109.902344 L 11.128906 109.902344 L 11.128906 114.71875 L 10.570313 114.71875 L 10.570313 109.902344 L 8.925781 109.902344 Z M 23.203125 109.363281 L 26.472656 109.363281 L 26.472656 109.882813 L 23.761719 109.882813 L 23.761719 111.585938 L 26.15625 111.585938 L 26.15625 112.113281 L 23.761719 112.113281 L 23.761719 114.203125 L 26.523438 114.203125 L 26.523438 114.71875 L 23.203125 114.71875 Z M 42.027344 110.941406 L 41.398438 110.941406 C 41.289063 110.558594 41.09375 110.265625 40.8125 110.058594 C 40.53125 109.855469 40.179688 109.753906 39.761719 109.753906 C 39.171875 109.753906 38.695313 109.96875 38.320313 110.40625 C 37.945313 110.839844 37.761719 111.402344 37.761719 112.089844 C 37.761719 112.746094 37.949219 113.285156 38.324219 113.703125 C 38.703125 114.121094 39.183594 114.332031 39.777344 114.332031 C 40.238281 114.332031 40.617188 114.210938 40.910156 113.972656 C 41.207031 113.730469 41.375 113.40625 41.421875 113 L 42.054688 113 C 41.972656 113.59375 41.730469 114.050781 41.320313 114.378906 C 40.914063 114.707031 40.378906 114.871094 39.714844 114.871094 C 39.367188 114.871094 39.039063 114.8125 38.726563 114.695313 C 38.414063 114.578125 38.15625 114.417969 37.949219 114.210938 C 37.683594 113.9375 37.480469 113.617188 37.335938 113.246094 C 37.191406 112.875 37.121094 112.472656 37.121094 112.046875 C 37.121094 111.667969 37.179688 111.300781 37.296875 110.953125 C 37.414063 110.601563 37.578125 110.300781 37.792969 110.046875 C 38.011719 109.78125 38.285156 109.574219 38.613281 109.429688 C 38.941406 109.285156 39.296875 109.214844 39.679688 109.214844 C 40.300781 109.214844 40.804688 109.355469 41.195313 109.644531 C 41.585938 109.933594 41.859375 110.363281 42.027344 110.941406 Z M 52.726563 109.363281 L 53.3125 109.363281 L 56.546875 113.832031 L 56.566406 113.796875 L 56.566406 109.363281 L 57.121094 109.363281 L 57.121094 114.71875 L 56.527344 114.71875 L 53.28125 110.203125 L 53.25 110.203125 L 53.28125 114.71875 L 52.726563 114.71875 Z M 70.355469 109.730469 C 69.792969 109.730469 69.328125 109.949219 68.96875 110.390625 C 68.609375 110.828125 68.429688 111.394531 68.429688 112.089844 C 68.429688 112.753906 68.609375 113.296875 68.972656 113.722656 C 69.335938 114.148438 69.796875 114.363281 70.355469 114.363281 C 70.925781 114.363281 71.390625 114.144531 71.753906 113.714844 C 72.113281 113.285156 72.292969 112.726563 72.292969 112.046875 C 72.292969 111.371094 72.109375 110.816406 71.746094 110.382813 C 71.382813 109.949219 70.917969 109.730469 70.355469 109.730469 Z M 70.363281 109.214844 C 70.683594 109.214844 70.984375 109.265625 71.269531 109.375 C 71.554688 109.484375 71.804688 109.644531 72.023438 109.851563 C 72.320313 110.136719 72.542969 110.460938 72.695313 110.824219 C 72.84375 111.1875 72.917969 111.59375 72.917969 112.046875 C 72.917969 112.441406 72.851563 112.816406 72.714844 113.179688 C 72.582031 113.542969 72.390625 113.855469 72.144531 114.121094 C 71.902344 114.375 71.636719 114.566406 71.34375 114.691406 C 71.050781 114.816406 70.722656 114.878906 70.363281 114.878906 C 70 114.878906 69.660156 114.808594 69.34375 114.667969 C 69.027344 114.527344 68.757813 114.328125 68.535156 114.066406 C 68.285156 113.777344 68.101563 113.472656 67.984375 113.144531 C 67.863281 112.816406 67.804688 112.453125 67.804688 112.046875 C 67.804688 111.632813 67.867188 111.261719 67.988281 110.929688 C 68.113281 110.597656 68.300781 110.289063 68.558594 110.003906 C 68.785156 109.75 69.054688 109.554688 69.367188 109.417969 C 69.679688 109.28125 70.011719 109.214844 70.363281 109.214844 Z M 83.632813 109.363281 L 84.191406 109.363281 L 84.191406 114.203125 L 86.980469 114.203125 L 86.980469 114.71875 L 83.632813 114.71875 Z M 99.472656 109.730469 C 98.910156 109.730469 98.445313 109.949219 98.085938 110.390625 C 97.726563 110.828125 97.546875 111.394531 97.546875 112.089844 C 97.546875 112.753906 97.730469 113.296875 98.089844 113.722656 C 98.453125 114.148438 98.914063 114.363281 99.472656 114.363281 C 100.042969 114.363281 100.511719 114.144531 100.871094 113.714844 C 101.230469 113.285156 101.410156 112.726563 101.410156 112.046875 C 101.410156 111.371094 101.230469 110.816406 100.863281 110.382813 C 100.5 109.949219 100.035156 109.730469 99.472656 109.730469 Z M 99.480469 109.214844 C 99.800781 109.214844 100.105469 109.265625 100.390625 109.375 C 100.671875 109.484375 100.921875 109.644531 101.140625 109.851563 C 101.4375 110.136719 101.660156 110.460938 101.8125 110.824219 C 101.960938 111.1875 102.035156 111.59375 102.035156 112.046875 C 102.035156 112.441406 101.96875 112.816406 101.835938 113.179688 C 101.699219 113.542969 101.507813 113.855469 101.261719 114.121094 C 101.019531 114.375 100.757813 114.566406 100.460938 114.691406 C 100.167969 114.816406 99.839844 114.878906 99.480469 114.878906 C 99.117188 114.878906 98.777344 114.808594 98.460938 114.667969 C 98.144531 114.527344 97.878906 114.328125 97.65625 114.066406 C 97.40625 113.777344 97.21875 113.472656 97.101563 113.144531 C 96.980469 112.816406 96.921875 112.453125 96.921875 112.046875 C 96.921875 111.632813 96.984375 111.261719 97.105469 110.929688 C 97.230469 110.597656 97.417969 110.289063 97.675781 110.003906 C 97.902344 109.75 98.171875 109.554688 98.484375 109.417969 C 98.796875 109.28125 99.128906 109.214844 99.480469 109.214844 Z M 117.265625 110.949219 L 116.675781 110.949219 C 116.558594 110.558594 116.359375 110.253906 116.078125 110.042969 C 115.796875 109.828125 115.457031 109.722656 115.058594 109.722656 C 114.472656 109.722656 113.996094 109.9375 113.632813 110.367188 C 113.265625 110.796875 113.082031 111.351563 113.082031 112.039063 C 113.082031 112.726563 113.265625 113.289063 113.632813 113.722656 C 114.003906 114.160156 114.472656 114.375 115.042969 114.375 C 115.542969 114.375 115.953125 114.21875 116.269531 113.898438 C 116.589844 113.578125 116.75 113.167969 116.75 112.660156 L 116.75 112.632813 L 115.78125 112.632813 L 115.78125 112.144531 L 117.289063 112.144531 L 117.289063 114.71875 L 116.871094 114.71875 L 116.839844 113.855469 C 116.664063 114.191406 116.421875 114.449219 116.113281 114.625 C 115.804688 114.796875 115.4375 114.886719 115.015625 114.886719 C 114.71875 114.886719 114.441406 114.84375 114.1875 114.761719 C 113.933594 114.679688 113.699219 114.554688 113.496094 114.390625 C 113.15625 114.113281 112.894531 113.773438 112.714844 113.371094 C 112.53125 112.96875 112.441406 112.523438 112.441406 112.039063 C 112.441406 111.621094 112.503906 111.25 112.625 110.921875 C 112.746094 110.59375 112.9375 110.28125 113.195313 109.996094 C 113.425781 109.738281 113.695313 109.542969 114.003906 109.40625 C 114.308594 109.273438 114.640625 109.207031 115 109.207031 C 115.585938 109.207031 116.074219 109.359375 116.472656 109.664063 C 116.871094 109.96875 117.136719 110.394531 117.265625 110.949219 Z M 128.132813 109.363281 L 128.691406 109.363281 L 128.691406 114.71875 L 128.132813 114.71875 Z M 141.539063 109.980469 L 140.34375 113 L 142.746094 113 L 141.554688 109.980469 Z M 141.242188 109.363281 L 141.847656 109.363281 L 144.050781 114.71875 L 143.441406 114.71875 L 142.945313 113.503906 L 140.144531 113.503906 L 139.640625 114.71875 L 139.039063 114.71875 L 141.242188 109.363281 "/>
</g>
</svg>
