<?xml version="1.0" encoding="UTF-8"?>
<svg xmlns="http://www.w3.org/2000/svg" xmlns:xlink="http://www.w3.org/1999/xlink" width="574.16pt" height="200.77pt" viewBox="0 0 574.16 200.77" version="1.1">
<defs>
<clipPath id="clip1">
  <path d="M 380 180 L 409 180 L 409 200.769531 L 380 200.769531 Z M 380 180 "/>
</clipPath>
<clipPath id="clip2">
  <path d="M 410 180 L 428 180 L 428 200.769531 L 410 200.769531 Z M 410 180 "/>
</clipPath>
<clipPath id="clip3">
  <path d="M 439 180 L 455 180 L 455 200.769531 L 439 200.769531 Z M 439 180 "/>
</clipPath>
<clipPath id="clip4">
  <path d="M 456 180 L 476 180 L 476 200.769531 L 456 200.769531 Z M 456 180 "/>
</clipPath>
<clipPath id="clip5">
  <path d="M 480 180 L 497 180 L 497 200.769531 L 480 200.769531 Z M 480 180 "/>
</clipPath>
<clipPath id="clip6">
  <path d="M 502 180 L 520 180 L 520 200.769531 L 502 200.769531 Z M 502 180 "/>
</clipPath>
<clipPath id="clip7">
  <path d="M 523 180 L 541 180 L 541 200.769531 L 523 200.769531 Z M 523 180 "/>
</clipPath>
<clipPath id="clip8">
  <path d="M 543 180 L 560 180 L 560 200.769531 L 543 200.769531 Z M 543 180 "/>
</clipPath>
<clipPath id="clip9">
  <path d="M 561 176 L 573 176 L 573 200.769531 L 561 200.769531 Z M 561 176 "/>
</clipPath>
<clipPath id="clip10">
  <path d="M 24.113281 171.890625 L 508.976563 171.890625 L 508.976563 174.117188 L 24.113281 174.117188 Z M 24.113281 171.890625 "/>
</clipPath>
<clipPath id="clip12">
  <path d="M 0.113281 0.890625 L 484.976563 0.890625 L 484.976563 3.117188 L 0.113281 3.117188 Z M 0.113281 0.890625 "/>
</clipPath>
<clipPath id="clip11">
  <rect width="485" height="4"/>
</clipPath>
<g id="surface4" clip-path="url(#clip11)">
<g clip-path="url(#clip12)" clip-rule="nonzero">
<path style=" stroke:none;fill-rule:nonzero;fill:rgb(13.699341%,12.199402%,12.5%);fill-opacity:1;" d="M 0.113281 3.117188 L 484.976563 3.117188 L 484.976563 0.890625 L 0.113281 0.890625 Z M 0.113281 3.117188 "/>
</g>
</g>
<clipPath id="clip13">
  <path d="M 412 0 L 574.160156 0 L 574.160156 167 L 412 167 Z M 412 0 "/>
</clipPath>
</defs>
<g id="surface1">
<path style=" stroke:none;fill-rule:nonzero;fill:rgb(13.699341%,12.199402%,12.5%);fill-opacity:1;" d="M 10.164063 136.59375 C 10.164063 137.78125 10.277344 138.960938 10.496094 140.03125 C 12.367188 146.597656 18.113281 151.113281 25.078125 151.113281 C 35.347656 151.113281 41.3125 143.050781 41.3125 131.105469 C 41.3125 120.574219 35.789063 111.652344 25.40625 111.652344 C 18.78125 111.652344 12.59375 116.164063 10.71875 123.261719 C 10.386719 124.441406 10.164063 125.734375 10.164063 127.238281 Z M 0.445313 81.105469 L 10.164063 81.105469 L 10.164063 113.6875 L 10.386719 113.6875 C 13.808594 107.882813 19.996094 104.226563 28.613281 104.226563 C 41.867188 104.226563 51.140625 114.980469 51.140625 130.683594 C 51.140625 149.390625 38.992188 158.636719 27.066406 158.636719 C 19.332031 158.636719 13.257813 155.730469 9.171875 148.851563 L 8.949219 148.851563 L 8.394531 157.457031 L 0 157.457031 C 0.332031 153.90625 0.445313 148.632813 0.445313 144.015625 "/>
<path style=" stroke:none;fill-rule:nonzero;fill:rgb(13.699341%,12.199402%,12.5%);fill-opacity:1;" d="M 63.296875 121.644531 C 63.296875 115.515625 63.183594 110.246094 62.855469 105.40625 L 71.359375 105.40625 L 71.796875 115.628906 L 72.132813 115.628906 C 74.558594 108.632813 80.527344 104.226563 87.042969 104.226563 C 88.035156 104.226563 88.8125 104.332031 89.691406 104.441406 L 89.691406 113.367188 C 88.699219 113.257813 87.703125 113.152344 86.378906 113.152344 C 79.53125 113.152344 74.667969 118.207031 73.34375 125.195313 C 73.121094 126.59375 73.015625 128.097656 73.015625 129.605469 L 73.015625 157.457031 L 63.296875 157.457031 "/>
<path style=" stroke:none;fill-rule:nonzero;fill:rgb(13.699341%,12.199402%,12.5%);fill-opacity:1;" d="M 127.027344 130.894531 C 116.421875 130.683594 104.382813 132.507813 104.382813 142.617188 C 104.382813 148.851563 108.578125 151.652344 113.441406 151.652344 C 120.511719 151.652344 125.039063 147.351563 126.589844 142.941406 C 126.917969 141.96875 127.027344 140.898438 127.027344 139.929688 Z M 136.527344 144.984375 C 136.527344 149.496094 136.75 153.90625 137.300781 157.457031 L 128.574219 157.457031 L 127.691406 150.898438 L 127.363281 150.898438 C 124.484375 154.984375 118.632813 158.636719 111.011719 158.636719 C 100.1875 158.636719 94.664063 151.214844 94.664063 143.691406 C 94.664063 131.105469 106.152344 124.230469 126.808594 124.335938 L 126.808594 123.261719 C 126.808594 118.960938 125.59375 111.109375 114.652344 111.214844 C 109.574219 111.214844 104.382813 112.613281 100.628906 115.089844 L 98.421875 108.742188 C 102.835938 106.054688 109.355469 104.226563 116.09375 104.226563 C 132.550781 104.226563 136.527344 115.089844 136.527344 125.519531 "/>
<path style=" stroke:none;fill-rule:nonzero;fill:rgb(13.699341%,12.199402%,12.5%);fill-opacity:1;" d="M 190.210938 155.519531 C 187.671875 156.703125 182.03125 158.53125 174.855469 158.53125 C 158.726563 158.53125 148.238281 147.886719 148.238281 131.972656 C 148.238281 115.945313 159.5 104.226563 176.953125 104.226563 C 182.699219 104.226563 187.777344 105.621094 190.429688 107.019531 L 188.21875 114.230469 C 185.902344 113.042969 182.257813 111.75 176.953125 111.75 C 164.695313 111.75 158.066406 120.675781 158.066406 131.429688 C 158.066406 143.476563 166.019531 150.898438 176.621094 150.898438 C 182.144531 150.898438 185.789063 149.605469 188.554688 148.421875 "/>
<g clip-path="url(#clip1)" clip-rule="nonzero">
<path style=" stroke:none;fill-rule:nonzero;fill:rgb(13.699341%,12.199402%,12.5%);fill-opacity:1;" d="M 384.058594 180.878906 L 386.671875 190.722656 C 387.195313 192.890625 387.714844 194.941406 388.074219 196.953125 L 388.195313 196.953125 C 388.640625 194.980469 389.28125 192.890625 389.921875 190.761719 L 393.101563 180.878906 L 396.074219 180.878906 L 399.085938 190.601563 C 399.8125 192.890625 400.371094 194.980469 400.8125 196.953125 L 400.933594 196.953125 C 401.257813 194.980469 401.78125 192.933594 402.421875 190.640625 L 405.195313 180.878906 L 408.691406 180.878906 L 402.421875 200.328125 L 399.210938 200.328125 L 396.230469 191.042969 C 395.550781 188.835938 394.988281 186.90625 394.503906 184.613281 L 394.425781 184.613281 C 393.945313 186.949219 393.339844 188.996094 392.65625 191.082031 L 389.523438 200.328125 L 386.3125 200.328125 L 380.445313 180.878906 "/>
</g>
<g clip-path="url(#clip2)" clip-rule="nonzero">
<path style=" stroke:none;fill-rule:nonzero;fill:rgb(13.699341%,12.199402%,12.5%);fill-opacity:1;" d="M 424.199219 188.671875 C 424.242188 186.464844 423.273438 182.925781 419.335938 182.925781 C 415.722656 182.925781 414.195313 186.222656 413.914063 188.671875 Z M 413.875 191.203125 C 413.953125 195.984375 416.964844 197.957031 420.503906 197.957031 C 423.03125 197.957031 424.601563 197.511719 425.886719 196.992188 L 426.53125 199.480469 C 425.285156 200.042969 423.117188 200.730469 420.023438 200.730469 C 414.074219 200.730469 410.457031 196.75 410.457031 190.921875 C 410.457031 185.019531 413.953125 180.394531 419.617188 180.394531 C 425.96875 180.394531 427.613281 185.980469 427.613281 189.558594 C 427.613281 190.28125 427.574219 190.84375 427.492188 191.246094 "/>
</g>
<g clip-path="url(#clip3)" clip-rule="nonzero">
<path style=" stroke:none;fill-rule:nonzero;fill:rgb(13.699341%,12.199402%,12.5%);fill-opacity:1;" d="M 454.375 199.644531 C 453.449219 200.085938 451.402344 200.769531 448.789063 200.769531 C 442.925781 200.769531 439.105469 196.789063 439.105469 190.800781 C 439.105469 184.816406 443.203125 180.433594 449.554688 180.433594 C 451.644531 180.433594 453.492188 180.957031 454.453125 181.480469 L 453.652344 184.171875 C 452.808594 183.730469 451.484375 183.25 449.554688 183.25 C 445.09375 183.25 442.683594 186.582031 442.683594 190.640625 C 442.683594 195.140625 445.574219 197.917969 449.433594 197.917969 C 451.441406 197.917969 452.765625 197.433594 453.773438 196.992188 "/>
</g>
<g clip-path="url(#clip4)" clip-rule="nonzero">
<path style=" stroke:none;fill-rule:nonzero;fill:rgb(13.699341%,12.199402%,12.5%);fill-opacity:1;" d="M 466.308594 198.117188 C 469.683594 198.117188 472.214844 194.941406 472.214844 190.523438 C 472.214844 187.226563 470.570313 183.089844 466.390625 183.089844 C 462.25 183.089844 460.441406 186.949219 460.441406 190.640625 C 460.441406 194.902344 462.855469 198.117188 466.269531 198.117188 Z M 466.1875 200.769531 C 460.964844 200.769531 456.867188 196.910156 456.867188 190.761719 C 456.867188 184.253906 461.164063 180.433594 466.511719 180.433594 C 472.09375 180.433594 475.871094 184.496094 475.871094 190.402344 C 475.871094 197.632813 470.851563 200.769531 466.230469 200.769531 "/>
</g>
<g clip-path="url(#clip5)" clip-rule="nonzero">
<path style=" stroke:none;fill-rule:nonzero;fill:rgb(13.699341%,12.199402%,12.5%);fill-opacity:1;" d="M 480.332031 186.140625 C 480.332031 184.09375 480.292969 182.488281 480.171875 180.878906 L 483.304688 180.878906 L 483.507813 184.050781 L 483.585938 184.050781 C 484.550781 182.242188 486.800781 180.433594 490.015625 180.433594 C 492.707031 180.433594 496.886719 182.042969 496.886719 188.714844 L 496.886719 200.328125 L 493.351563 200.328125 L 493.351563 189.117188 C 493.351563 185.980469 492.183594 183.332031 488.847656 183.332031 C 486.558594 183.332031 484.753906 184.976563 484.109375 186.949219 C 483.945313 187.386719 483.867188 188.03125 483.867188 188.59375 L 483.867188 200.328125 L 480.332031 200.328125 "/>
</g>
<g clip-path="url(#clip6)" clip-rule="nonzero">
<path style=" stroke:none;fill-rule:nonzero;fill:rgb(13.699341%,12.199402%,12.5%);fill-opacity:1;" d="M 502.632813 186.140625 C 502.632813 184.09375 502.59375 182.488281 502.472656 180.878906 L 505.605469 180.878906 L 505.808594 184.050781 L 505.886719 184.050781 C 506.851563 182.242188 509.101563 180.433594 512.316406 180.433594 C 515.007813 180.433594 519.1875 182.042969 519.1875 188.714844 L 519.1875 200.328125 L 515.652344 200.328125 L 515.652344 189.117188 C 515.652344 185.980469 514.484375 183.332031 511.152344 183.332031 C 508.859375 183.332031 507.050781 184.976563 506.40625 186.949219 C 506.25 187.386719 506.167969 188.03125 506.167969 188.59375 L 506.167969 200.328125 L 502.632813 200.328125 "/>
</g>
<g clip-path="url(#clip7)" clip-rule="nonzero">
<path style=" stroke:none;fill-rule:nonzero;fill:rgb(13.699341%,12.199402%,12.5%);fill-opacity:1;" d="M 537.269531 188.671875 C 537.304688 186.464844 536.34375 182.925781 532.40625 182.925781 C 528.789063 182.925781 527.261719 186.222656 526.984375 188.671875 Z M 526.9375 191.203125 C 527.023438 195.984375 530.035156 197.957031 533.570313 197.957031 C 536.101563 197.957031 537.671875 197.511719 538.953125 196.992188 L 539.597656 199.480469 C 538.351563 200.042969 536.183594 200.730469 533.089844 200.730469 C 527.144531 200.730469 523.527344 196.75 523.527344 190.921875 C 523.527344 185.019531 527.023438 180.394531 532.6875 180.394531 C 539.035156 180.394531 540.679688 185.980469 540.679688 189.558594 C 540.679688 190.28125 540.640625 190.84375 540.5625 191.246094 "/>
</g>
<g clip-path="url(#clip8)" clip-rule="nonzero">
<path style=" stroke:none;fill-rule:nonzero;fill:rgb(13.699341%,12.199402%,12.5%);fill-opacity:1;" d="M 558.925781 199.644531 C 558 200.085938 555.949219 200.769531 553.339844 200.769531 C 547.472656 200.769531 543.65625 196.789063 543.65625 190.800781 C 543.65625 184.816406 547.753906 180.433594 554.101563 180.433594 C 556.191406 180.433594 558.039063 180.957031 559.003906 181.480469 L 558.199219 184.171875 C 557.355469 183.730469 556.03125 183.25 554.101563 183.25 C 549.640625 183.25 547.230469 186.582031 547.230469 190.640625 C 547.230469 195.140625 550.121094 197.917969 553.984375 197.917969 C 555.992188 197.917969 557.316406 197.433594 558.320313 196.992188 "/>
</g>
<g clip-path="url(#clip9)" clip-rule="nonzero">
<path style=" stroke:none;fill-rule:nonzero;fill:rgb(13.699341%,12.199402%,12.5%);fill-opacity:1;" d="M 567.84375 176.214844 L 567.84375 180.878906 L 572.90625 180.878906 L 572.90625 183.570313 L 567.84375 183.570313 L 567.84375 194.058594 C 567.84375 196.46875 568.527344 197.835938 570.496094 197.835938 C 571.460938 197.835938 572.023438 197.753906 572.546875 197.59375 L 572.707031 200.289063 C 572.023438 200.527344 570.9375 200.769531 569.570313 200.769531 C 567.925781 200.769531 566.597656 200.207031 565.753906 199.28125 C 564.789063 198.199219 564.386719 196.46875 564.386719 194.179688 L 564.386719 183.570313 L 561.375 183.570313 L 561.375 180.878906 L 564.386719 180.878906 L 564.386719 177.300781 "/>
</g>
<g clip-path="url(#clip10)" clip-rule="nonzero">
<use xlink:href="#surface4" transform="matrix(1,0,0,1,24,171)"/>
</g>
<path style=" stroke:none;fill-rule:nonzero;fill:rgb(13.699341%,12.199402%,12.5%);fill-opacity:1;" d="M 24.113281 171.390625 L 24.113281 172.390625 L 508.476563 172.390625 L 508.476563 173.617188 L 24.113281 173.617188 L 24.113281 174.617188 L 509.476563 174.617188 L 509.476563 171.390625 "/>
<path style=" stroke:none;fill-rule:nonzero;fill:rgb(13.699341%,12.199402%,12.5%);fill-opacity:1;" d="M 206.058594 156.386719 L 206.058594 51.554688 C 203.722656 51.964844 201.382813 52.378906 199.050781 52.789063 C 209.726563 74.386719 217.09375 97.476563 227.933594 119.042969 C 237.496094 138.066406 251.371094 163.53125 274.386719 167.828125 C 276.261719 168.179688 278.367188 166.386719 278.40625 164.507813 C 279.300781 121.652344 282.882813 78.910156 283.574219 36.050781 C 283.652344 31.3125 276.300781 30.597656 276.226563 35.351563 C 275.53125 78.214844 271.949219 120.957031 271.058594 163.804688 C 272.402344 162.699219 273.738281 161.589844 275.082031 160.476563 C 265.492188 158.6875 258.09375 151.355469 252.128906 144.117188 C 244.117188 134.394531 238.105469 123.070313 232.585938 111.804688 C 222.636719 91.511719 215.722656 69.859375 205.71875 49.621094 C 204.199219 46.554688 198.707031 47.03125 198.707031 50.855469 L 198.707031 155.6875 C 198.707031 160.414063 206.058594 161.136719 206.058594 156.386719 "/>
<path style=" stroke:none;fill-rule:nonzero;fill:rgb(13.699341%,12.199402%,12.5%);fill-opacity:1;" d="M 329.855469 60.3125 C 355.691406 60.3125 388.914063 62.523438 415.484375 62.523438 "/>
<path style=" stroke:none;fill-rule:nonzero;fill:rgb(13.699341%,12.199402%,12.5%);fill-opacity:1;" d="M 329.507813 63.984375 C 358.066406 64.042969 386.574219 66.140625 415.136719 66.199219 C 419.863281 66.207031 420.585938 58.859375 415.832031 58.847656 C 387.273438 58.792969 358.761719 56.695313 330.203125 56.636719 C 325.476563 56.625 324.753906 63.976563 329.507813 63.984375 "/>
<path style=" stroke:none;fill-rule:nonzero;fill:rgb(13.699341%,12.199402%,12.5%);fill-opacity:1;" d="M 369.324219 18.703125 C 375.460938 65.554688 369.875 113.9375 374.542969 160.976563 "/>
<path style=" stroke:none;fill-rule:nonzero;fill:rgb(13.699341%,12.199402%,12.5%);fill-opacity:1;" d="M 365.6875 19.34375 C 371.675781 66.566406 366.382813 114.296875 370.90625 161.617188 C 371.363281 166.359375 378.628906 165.042969 378.179688 160.335938 C 373.652344 113.015625 378.945313 65.296875 372.960938 18.0625 C 372.359375 13.335938 365.09375 14.640625 365.6875 19.34375 "/>
<path style=" stroke:none;fill-rule:nonzero;fill:rgb(13.699341%,12.199402%,12.5%);fill-opacity:1;" d="M 293.191406 120.105469 C 310.40625 118.351563 327.589844 116.191406 344.773438 114.144531 C 346.53125 113.933594 347.472656 112.417969 347.804688 110.859375 C 349.109375 104.796875 345.941406 96.460938 344.070313 90.839844 C 341.035156 81.707031 337.144531 75.296875 327.546875 72.1875 C 317.484375 68.929688 306.960938 73.730469 299.621094 80.492188 C 292.117188 87.410156 289.03125 96.472656 287.457031 106.273438 C 284.691406 123.503906 286.164063 143.683594 302.195313 153.664063 C 318.03125 163.523438 337.453125 160.25 347.152344 143.875 C 349.566406 139.804688 343.535156 135.539063 341.109375 139.640625 C 333.324219 152.78125 319.285156 155.050781 306.429688 147.617188 C 293.277344 140.011719 293.066406 123.867188 294.382813 110.28125 C 295.117188 102.691406 296.941406 95.542969 301.507813 89.359375 C 306.78125 82.222656 315.984375 76.988281 324.984375 79.113281 C 332.867188 80.972656 335.359375 87.488281 337.53125 94.441406 C 338.902344 98.808594 341.453125 105.511719 340.457031 110.160156 C 341.464844 109.066406 342.480469 107.96875 343.488281 106.875 C 326.308594 108.921875 309.125 111.082031 291.90625 112.832031 C 287.171875 113.316406 288.484375 120.582031 293.191406 120.105469 "/>
<g clip-path="url(#clip13)" clip-rule="nonzero">
<path style=" stroke:none;fill-rule:nonzero;fill:rgb(96.899414%,57.998657%,11.399841%);fill-opacity:1;" d="M 426.492188 21.898438 C 449.890625 31.054688 458.648438 33.488281 482.957031 38.15625 C 499.261719 41.285156 544.242188 53.597656 564.476563 38.695313 C 586.09375 22.777344 566.660156 14.683594 553.292969 24.453125 C 536.375 36.8125 526.839844 51.921875 522.773438 72.269531 C 518.699219 90.578125 509.546875 120.082031 513.613281 139.414063 C 519.722656 162.8125 570.589844 183.164063 566.511719 145.523438 C 561.429688 101.773438 485.839844 94.558594 454.605469 103.804688 C 446.976563 106.066406 397.636719 133.308594 419 148.570313 C 428.910156 155.65625 443.441406 145.492188 449.523438 139.414063 C 461.734375 129.246094 463.765625 113.980469 464.78125 99.738281 C 465.792969 73.28125 465.792969 50.90625 454.605469 27.503906 C 447.488281 12.246094 437.308594 2.070313 420.015625 0.0390625 C 407.804688 -0.984375 409.898438 16.863281 426.492188 21.898438 "/>
</g>
</g>
</svg>
