<?xml version="1.0" encoding="UTF-8"?>
<svg xmlns="http://www.w3.org/2000/svg" xmlns:xlink="http://www.w3.org/1999/xlink" width="541.54pt" height="98.41pt" viewBox="0 0 541.54 98.41" version="1.1">
<defs>
<clipPath id="clip1">
  <path d="M 314 0 L 541.539063 0 L 541.539063 51 L 314 51 Z M 314 0 "/>
</clipPath>
<clipPath id="clip2">
  <path d="M 0 23 L 141 23 L 141 98.410156 L 0 98.410156 Z M 0 23 "/>
</clipPath>
</defs>
<g id="surface1">
<g clip-path="url(#clip1)" clip-rule="nonzero">
<path style=" stroke:none;fill-rule:evenodd;fill:rgb(87.799072%,34.498596%,14.498901%);fill-opacity:1;" d="M 423.996094 1.007813 L 435.75 0.332031 L 447.085938 0 L 468.925781 0 L 478.992188 0.671875 L 488.648438 1.339844 L 497.464844 2.683594 L 505.855469 4.03125 L 513.832031 5.371094 L 520.554688 7.050781 L 526.425781 9.070313 L 531.464844 11.417969 L 533.984375 12.425781 L 535.671875 13.769531 L 537.347656 15.117188 L 539.019531 16.453125 L 539.863281 17.800781 L 540.703125 19.144531 L 541.546875 20.488281 L 541.546875 23.839844 L 541.121094 25.859375 L 539.863281 27.875 L 538.609375 29.554688 L 536.503906 31.566406 L 534.402344 33.589844 L 531.464844 35.265625 L 528.105469 37.28125 L 524.746094 38.960938 L 520.554688 40.640625 L 516.359375 42.316406 L 511.734375 43.992188 L 501.664063 47.023438 L 490.328125 50.042969 L 497.046875 47.023438 L 502.921875 43.992188 L 507.960938 40.976563 L 512.152344 37.945313 L 515.097656 34.929688 L 517.617188 31.566406 L 518.449219 30.230469 L 518.871094 28.546875 L 518.871094 25.527344 L 518.449219 23.839844 L 518.03125 22.5 L 516.769531 20.820313 L 515.511719 19.480469 L 514.257813 18.136719 L 512.152344 16.789063 L 510.058594 15.453125 L 507.960938 14.441406 L 502.503906 12.089844 L 496.199219 10.410156 L 489.070313 8.730469 L 481.09375 7.386719 L 472.269531 6.378906 L 463.039063 5.371094 L 452.960938 5.035156 L 442.046875 4.703125 L 431.132813 5.035156 L 419.796875 5.371094 L 407.628906 6.378906 L 395.449219 7.386719 L 385.378906 8.730469 L 374.886719 10.410156 L 363.539063 12.425781 L 352.632813 14.777344 L 341.714844 17.128906 L 331.222656 19.480469 L 321.984375 21.828125 L 314.429688 24.179688 L 318.207031 22.5 L 322.824219 20.488281 L 328.285156 18.808594 L 334.160156 16.789063 L 346.753906 13.429688 L 361.027344 10.078125 L 376.5625 7.050781 L 392.097656 4.367188 L 408.042969 2.351563 "/>
</g>
<g clip-path="url(#clip2)" clip-rule="nonzero">
<path style=" stroke:none;fill-rule:nonzero;fill:rgb(12.5%,19.198608%,39.199829%);fill-opacity:1;" d="M 70.105469 23.511719 L 77.242188 23.839844 L 83.957031 24.179688 L 90.675781 25.191406 L 96.972656 26.53125 L 103.269531 27.875 L 109.148438 29.554688 L 114.183594 31.902344 L 119.222656 34.253906 L 123.839844 36.941406 L 128.039063 39.628906 L 131.816406 42.652344 L 134.757813 46.011719 L 137.273438 49.707031 L 138.957031 53.070313 L 140.214844 57.09375 L 140.632813 60.789063 L 140.214844 64.820313 L 138.957031 68.511719 L 137.273438 72.214844 L 134.757813 75.566406 L 131.816406 78.925781 L 128.039063 81.953125 L 123.839844 84.96875 L 119.222656 87.660156 L 114.183594 90.011719 L 109.148438 92.03125 L 103.269531 93.703125 L 96.972656 95.378906 L 90.675781 96.730469 L 83.957031 97.398438 L 77.242188 98.070313 L 70.105469 98.410156 L 62.964844 98.070313 L 56.257813 97.398438 L 49.539063 96.730469 L 43.242188 95.378906 L 36.945313 93.703125 L 31.058594 92.03125 L 26.027344 90.011719 L 20.992188 87.660156 L 16.371094 84.96875 L 12.167969 81.953125 L 8.398438 78.925781 L 5.457031 75.566406 L 2.9375 72.214844 L 1.257813 68.511719 L 0 64.820313 L 0 57.09375 L 1.257813 53.070313 L 2.9375 49.707031 L 5.457031 46.011719 L 8.398438 42.652344 L 12.167969 39.628906 L 16.371094 36.941406 L 20.992188 34.253906 L 26.027344 31.902344 L 31.058594 29.554688 L 36.945313 27.875 L 43.242188 26.53125 L 49.539063 25.191406 L 56.257813 24.179688 L 62.964844 23.839844 Z M 70.105469 28.546875 L 63.386719 28.546875 L 57.089844 29.21875 L 50.792969 29.886719 L 44.921875 30.902344 L 39.035156 32.574219 L 34.003906 34.253906 L 28.96875 35.933594 L 24.347656 38.285156 L 20.148438 40.640625 L 16.792969 42.988281 L 13.433594 45.675781 L 10.914063 48.363281 L 8.816406 51.386719 L 7.136719 54.410156 L 6.296875 57.765625 L 5.878906 60.789063 L 6.296875 64.15625 L 7.136719 67.171875 L 8.816406 70.195313 L 10.914063 73.21875 L 13.433594 75.902344 L 16.792969 78.59375 L 20.148438 81.277344 L 24.347656 83.625 L 28.96875 85.644531 L 34.003906 87.660156 L 39.035156 89.339844 L 44.921875 90.679688 L 50.792969 91.691406 L 57.089844 92.699219 L 63.386719 93.03125 L 70.105469 93.371094 L 76.828125 93.03125 L 83.121094 92.699219 L 89.417969 91.691406 L 95.292969 90.679688 L 101.171875 89.339844 L 106.628906 87.660156 L 111.246094 85.644531 L 115.863281 83.625 L 120.0625 81.277344 L 123.839844 78.59375 L 126.78125 75.902344 L 129.296875 73.21875 L 131.390625 70.195313 L 133.070313 67.171875 L 133.917969 64.15625 L 134.328125 60.789063 L 133.917969 57.765625 L 133.070313 54.410156 L 131.390625 51.386719 L 129.296875 48.363281 L 126.78125 45.675781 L 123.839844 42.988281 L 120.0625 40.640625 L 115.863281 38.285156 L 111.246094 35.933594 L 106.628906 34.253906 L 101.171875 32.574219 L 95.292969 30.902344 L 89.417969 29.886719 L 83.121094 29.21875 L 76.828125 28.546875 "/>
</g>
<path style=" stroke:none;fill-rule:evenodd;fill:rgb(12.5%,19.198608%,39.199829%);fill-opacity:1;" d="M 28.121094 38.960938 L 112.085938 38.960938 L 112.085938 81.953125 L 28.121094 81.953125 Z M 41.976563 43.992188 L 98.230469 43.992188 L 98.230469 53.066406 L 41.976563 53.066406 Z M 42.394531 55.75 L 51.628906 55.75 L 58.773438 61.457031 L 66.324219 55.414063 L 75.148438 55.414063 L 82.699219 61.125 L 88.996094 55.078125 L 97.398438 55.078125 L 87.738281 64.816406 L 78.5 64.816406 L 71.363281 59.113281 L 63.808594 64.816406 L 53.730469 64.816406 Z M 41.976563 67.175781 L 98.230469 67.175781 L 98.230469 76.242188 L 41.976563 76.242188 Z M 41.976563 67.175781 "/>
<path style=" stroke:none;fill-rule:evenodd;fill:rgb(12.5%,19.198608%,39.199829%);fill-opacity:1;" d="M 196.464844 30.230469 L 224.59375 30.230469 L 221.234375 43.328125 L 204.449219 43.328125 L 201.921875 54.074219 L 216.195313 54.074219 L 213.257813 66.5 L 198.984375 66.5 L 192.6875 91.691406 L 181.351563 91.691406 Z M 230.46875 30.230469 L 240.546875 30.230469 L 237.609375 41.980469 L 227.53125 41.980469 Z M 226.273438 47.019531 L 236.339844 47.019531 L 225.429688 91.691406 L 215.355469 91.691406 Z M 246.84375 30.230469 L 257.335938 30.230469 L 251.882813 51.386719 L 254.398438 49.035156 L 256.5 47.355469 L 259.015625 46.347656 L 261.117188 46.011719 L 262.371094 46.347656 L 263.214844 46.679688 L 264.476563 47.019531 L 265.316406 47.695313 L 266.574219 49.371094 L 267.835938 52.054688 L 268.246094 55.078125 L 268.246094 59.117188 L 267.835938 63.480469 L 266.988281 68.851563 L 265.734375 72.214844 L 264.898438 75.566406 L 263.628906 78.59375 L 262.371094 81.609375 L 260.695313 84.300781 L 259.4375 86.320313 L 257.757813 88.332031 L 256.078125 90.011719 L 254.398438 91.019531 L 253.140625 92.03125 L 251.460938 92.359375 L 249.78125 92.703125 L 248.523438 92.359375 L 247.261719 92.03125 L 246.421875 91.691406 L 245.164063 90.679688 L 244.316406 88.667969 L 243.0625 84.96875 L 241.382813 91.691406 L 232.148438 91.691406 Z M 247.675781 69.1875 L 247.261719 71.875 L 246.84375 74.222656 L 246.84375 77.582031 L 247.261719 78.59375 L 247.675781 79.601563 L 248.523438 79.929688 L 249.359375 80.265625 L 250.621094 79.929688 L 251.460938 79.601563 L 252.292969 78.59375 L 253.140625 77.582031 L 254.820313 74.222656 L 256.5 69.1875 L 257.335938 64.484375 L 257.335938 61.457031 L 256.921875 60.457031 L 256.5 59.445313 L 255.652344 59.117188 L 254.820313 58.773438 L 253.980469 59.117188 L 252.71875 59.445313 L 251.882813 60.457031 L 251.035156 61.457031 L 248.945313 64.816406 Z M 299.734375 73.550781 L 279.582031 73.550781 L 279.171875 77.246094 L 279.171875 79.601563 L 280.007813 80.941406 L 280.429688 81.953125 L 281.269531 82.621094 L 282.527344 82.621094 L 284.203125 82.289063 L 285.46875 81.277344 L 286.726563 80.265625 L 287.984375 78.59375 L 297.640625 80.265625 L 295.957031 83.292969 L 293.863281 85.980469 L 291.757813 87.996094 L 289.660156 89.667969 L 287.558594 91.019531 L 285.46875 92.03125 L 282.941406 92.359375 L 280.007813 92.703125 L 277.492188 92.359375 L 275.390625 92.03125 L 273.710938 91.355469 L 272.027344 90.011719 L 271.191406 88.667969 L 270.351563 86.992188 L 269.515625 84.636719 L 269.09375 82.289063 L 269.09375 76.242188 L 269.515625 72.882813 L 271.605469 64.484375 L 273.710938 60.121094 L 275.804688 56.085938 L 278.324219 52.726563 L 281.269531 49.707031 L 284.203125 47.695313 L 285.886719 47.019531 L 287.558594 46.679688 L 289.246094 46.347656 L 290.917969 46.011719 L 293.445313 46.347656 L 295.957031 47.019531 L 297.640625 47.695313 L 299.320313 49.035156 L 300.574219 50.714844 L 301.414063 52.726563 L 301.839844 54.746094 L 302.253906 57.433594 L 302.253906 60.457031 L 301.839844 63.8125 L 301.414063 67.503906 L 300.574219 71.539063 Z M 291.757813 65.496094 L 292.183594 61.125 L 291.757813 58.441406 L 291.34375 57.433594 L 290.503906 56.761719 L 289.660156 56.421875 L 288.816406 56.085938 L 287.558594 56.421875 L 286.300781 57.09375 L 285.46875 58.105469 L 284.203125 59.445313 L 282.941406 62.132813 L 281.6875 65.496094 Z M 311.070313 47.019531 L 320.726563 47.019531 L 319.046875 54.410156 L 321.144531 50.375 L 323.246094 48.023438 L 324.503906 47.019531 L 325.34375 46.679688 L 326.183594 46.347656 L 327.441406 46.011719 L 328.703125 46.347656 L 329.542969 46.679688 L 330.800781 47.355469 L 331.648438 48.363281 L 325.761719 60.789063 L 324.082031 59.785156 L 323.246094 59.445313 L 321.984375 59.445313 L 321.144531 60.121094 L 320.3125 60.789063 L 319.472656 62.132813 L 318.207031 64.484375 L 316.949219 67.84375 L 315.695313 71.875 L 314.007813 76.570313 L 310.652344 91.691406 L 300.15625 91.691406 Z M 338.777344 30.230469 L 350.113281 30.230469 L 344.65625 51.722656 L 357.25 51.722656 L 362.28125 30.230469 L 373.617188 30.230469 L 358.507813 91.691406 L 347.175781 91.691406 L 353.472656 66.832031 L 340.878906 66.832031 L 334.992188 91.691406 L 323.671875 91.691406 Z M 369.847656 69.523438 L 371.105469 64.816406 L 373.203125 60.121094 L 375.300781 56.421875 L 377.820313 52.726563 L 380.761719 49.707031 L 384.121094 47.695313 L 385.796875 47.019531 L 387.058594 46.679688 L 388.738281 46.347656 L 390.828125 46.011719 L 392.515625 46.347656 L 394.195313 46.679688 L 395.875 47.355469 L 397.132813 48.023438 L 398.394531 49.035156 L 399.234375 50.375 L 400.074219 52.054688 L 400.90625 53.742188 L 401.332031 57.09375 L 401.332031 64.816406 L 400.488281 69.1875 L 398.804688 74.222656 L 397.132813 78.59375 L 394.613281 82.621094 L 392.097656 85.980469 L 390.828125 87.660156 L 389.160156 89 L 387.480469 90.011719 L 386.210938 91.019531 L 384.539063 91.691406 L 382.863281 92.359375 L 381.179688 92.703125 L 377.820313 92.703125 L 376.144531 92.359375 L 374.886719 92.03125 L 373.617188 91.355469 L 372.785156 90.679688 L 371.945313 89.667969 L 371.105469 88.332031 L 370.257813 87.328125 L 369.425781 85.3125 L 369.003906 83.625 L 368.585938 81.609375 L 368.585938 74.890625 Z M 379.921875 69.523438 L 379.503906 72.214844 L 379.082031 74.5625 L 379.082031 78.25 L 379.503906 79.601563 L 380.339844 80.265625 L 381.179688 80.941406 L 382.019531 81.277344 L 383.28125 80.941406 L 384.121094 80.265625 L 385.378906 79.601563 L 386.636719 78.25 L 387.480469 76.570313 L 388.316406 74.5625 L 389.160156 72.214844 L 389.992188 69.1875 L 390.828125 66.5 L 390.828125 60.789063 L 390.417969 59.445313 L 389.570313 58.441406 L 388.738281 58.105469 L 387.898438 57.765625 L 386.636719 58.105469 L 385.796875 58.773438 L 384.539063 59.445313 L 383.699219 60.789063 L 382.441406 62.46875 L 381.597656 64.484375 L 380.761719 66.832031 Z M 410.5625 47.019531 L 420.21875 47.019531 L 418.539063 53.742188 L 421.476563 50.042969 L 423.996094 48.023438 L 425.261719 47.019531 L 426.941406 46.679688 L 428.195313 46.347656 L 429.453125 46.011719 L 431.132813 46.347656 L 432.390625 46.679688 L 433.230469 47.355469 L 434.070313 48.023438 L 435.332031 50.375 L 435.75 53.742188 L 439.109375 50.042969 L 441.636719 47.695313 L 442.890625 47.019531 L 444.148438 46.679688 L 445.40625 46.347656 L 447.085938 46.011719 L 448.765625 46.347656 L 450.445313 47.355469 L 451.703125 48.699219 L 452.546875 50.375 L 452.960938 52.726563 L 452.960938 55.75 L 452.546875 59.445313 L 451.703125 63.8125 L 444.984375 91.691406 L 434.492188 91.691406 L 440.789063 66.164063 L 441.207031 63.8125 L 441.207031 61.792969 L 440.789063 60.789063 L 440.367188 60.121094 L 439.949219 59.785156 L 439.109375 59.445313 L 438.277344 59.785156 L 437.429688 60.121094 L 436.597656 60.789063 L 435.75 61.792969 L 434.492188 64.484375 L 432.8125 68.851563 L 427.355469 91.691406 L 417.28125 91.691406 L 423.15625 67.171875 L 423.578125 64.816406 L 423.996094 63.144531 L 423.996094 61.792969 L 423.578125 60.457031 L 422.738281 59.785156 L 421.898438 59.445313 L 421.058594 59.445313 L 420.21875 60.121094 L 419.378906 60.789063 L 418.539063 61.792969 L 416.859375 64.484375 L 415.605469 68.851563 L 410.140625 91.691406 L 399.652344 91.691406 Z M 484.863281 73.550781 L 464.296875 73.550781 L 463.882813 77.246094 L 464.296875 79.601563 L 464.71875 80.941406 L 465.566406 81.953125 L 466.398438 82.621094 L 467.238281 82.621094 L 468.925781 82.289063 L 470.597656 81.277344 L 471.4375 80.265625 L 473.117188 78.59375 L 482.773438 80.265625 L 480.671875 83.292969 L 478.570313 85.980469 L 476.902344 87.996094 L 474.796875 89.667969 L 472.695313 91.019531 L 470.179688 92.03125 L 467.65625 92.359375 L 464.71875 92.703125 L 462.203125 92.359375 L 460.101563 92.03125 L 458.421875 91.355469 L 457.164063 90.011719 L 455.902344 88.667969 L 455.0625 86.992188 L 454.230469 84.636719 L 453.804688 82.289063 L 453.804688 76.242188 L 454.230469 72.882813 L 455.0625 69.523438 L 456.320313 64.484375 L 458.421875 60.121094 L 460.519531 56.085938 L 463.039063 52.726563 L 465.980469 49.707031 L 468.925781 47.695313 L 470.597656 47.019531 L 472.273438 46.679688 L 473.957031 46.347656 L 475.632813 46.011719 L 478.570313 46.347656 L 480.671875 47.019531 L 482.773438 47.695313 L 484.03125 49.035156 L 485.289063 50.714844 L 486.132813 52.726563 L 486.550781 54.746094 L 486.96875 57.433594 L 486.96875 63.8125 L 486.132813 67.503906 L 485.289063 71.539063 Z M 476.472656 65.496094 L 476.902344 61.125 L 476.472656 58.441406 L 476.054688 57.433594 L 475.632813 56.761719 L 474.796875 56.421875 L 473.527344 56.085938 L 472.695313 56.421875 L 471.4375 57.09375 L 470.179688 58.105469 L 468.925781 59.445313 L 467.65625 62.132813 L 466.398438 65.496094 "/>
</g>
</svg>
