<svg id="Layer_1" data-name="Layer 1" xmlns="http://www.w3.org/2000/svg" viewBox="0 0 117 40"><defs><style>.cls-1{fill:#f26e21;}.cls-2{fill:#f9a11b;}</style></defs><path d="M32.32,22.62V14.41h2.07v3.33h2.27c6.3,0,5.61,9.3.05,9.3A4.24,4.24,0,0,1,32.32,22.62Zm2.08.13A2.33,2.33,0,0,0,36.69,25c3,0,3.24-5.26.23-5.26H34.4Z"/><path d="M102.2,14.41h2.07v6.67L107,17.74h2.42l-3,3.83,3.6,5.34H107.4L105,23.32l-.76,1v2.64H102.2Z"/><path d="M51.3,26.93H49.23l.05-1.43A3.85,3.85,0,0,1,46.41,27c-3,0-3.93-2.33-3.91-4.71a4.53,4.53,0,0,1,4.59-4.72,4,4,0,0,1,4.21,4.31ZM47.18,25c1.41,0,2.12-1.34,2.14-2.68A2.35,2.35,0,0,0,47,19.67a2.46,2.46,0,0,0-2.48,2.64A2.56,2.56,0,0,0,47.18,25Z"/><path d="M60.61,22v4.95H58.54V21.65a1.91,1.91,0,1,0-3.82,0v5.26H52.65V22c0-2.72,1.45-4.35,4-4.35S60.61,19.24,60.61,22Z"/><path d="M62,22.31c0-2.39,1.39-4.75,4.56-4.75s4.57,2.36,4.57,4.75v4.38c0,2.81-1.54,4.8-4.57,4.8H63.64v-2h3.13A2.3,2.3,0,0,0,69,27v-.54a4.61,4.61,0,0,1-2.5.65C63.36,27.06,62,24.69,62,22.31ZM66.53,25c3.38,0,3.38-5.47,0-5.47S63.16,25,66.53,25Z"/><path d="M72.45,14.41h2.07V26.93H72.45Z"/><path d="M86,14.41H88.1V26.93H86Z"/><path d="M100.85,22v4.95H98.78V21.65a1.91,1.91,0,1,0-3.82,0v5.26H92.89V22c0-2.72,1.45-4.35,4-4.35S100.85,19.24,100.85,22Z"/><path d="M84.68,26.93H82.61l0-1.43A3.82,3.82,0,0,1,79.79,27c-3,0-3.93-2.33-3.91-4.71a4.53,4.53,0,0,1,4.6-4.72,4,4,0,0,1,4.2,4.31ZM80.56,25c1.42,0,2.12-1.34,2.14-2.68a2.35,2.35,0,0,0-2.27-2.67A2.46,2.46,0,0,0,78,22.31,2.56,2.56,0,0,0,80.56,25Z"/><path d="M89.47,19.15v7.76h2.06V19.15A1.36,1.36,0,0,1,89.47,19.15Z"/><ellipse cx="90.5" cy="17.61" rx="1.21" ry="1.2"/><path class="cls-1" d="M27,17.67A6.49,6.49,0,0,0,22,14h0l-.26,0a5.12,5.12,0,0,0-.64-2.73,5.34,5.34,0,0,0-4.73-2.75A5.67,5.67,0,0,0,15,8.68a5.09,5.09,0,0,0-1.32.54L9.92,11.33a5.7,5.7,0,0,0-2.16,7.79l3.83,6.78,0,0,3.15,5.56,9.48-5.37A6.57,6.57,0,0,0,27,17.67Zm-4.29,4.71L16.9,26.49h0l-2.17-3.07-.24-.35-3.51-5a2.24,2.24,0,0,1,.54-3.1l3.33-2.35a2,2,0,0,1,1-.35,1.36,1.36,0,0,1,.35,0,1.81,1.81,0,0,1,1.39.78,1.73,1.73,0,0,1,.32.9l0,2.06,0,1.09L21.08,17a1.6,1.6,0,0,1,.31,0,2.93,2.93,0,0,1,2.29,1.42A3,3,0,0,1,22.74,22.38Z"/><path class="cls-2" d="M24.24,26.12l-9.48,5.37,2.14-5,5.84-4.11a3,3,0,0,0,.94-4A2.93,2.93,0,0,0,21.39,17a1.6,1.6,0,0,0-.31,0l-3.15.11,3.8-3.1L22,14h0a6.49,6.49,0,0,1,5,3.65A6.57,6.57,0,0,1,24.24,26.12Z"/></svg>